<?xml version="1.0" encoding="UTF-8" standalone="no"?>
<!DOCTYPE svg PUBLIC "-//W3C//DTD SVG 1.1//EN" "http://www.w3.org/Graphics/SVG/1.1/DTD/svg11.dtd">
<svg xmlns="http://www.w3.org/2000/svg" version="1.1" viewBox="0.00 0.00 1254.00 1254.00">
<path fill="none" d="
  M 1254.00 0.00
  L 1254.00 1254.00
  L 0.00 1254.00
  L 0.00 0.00
  L 1254.00 0.00
  Z
"/>
<g fill="#ffffff">
<path d="
  M 357.86 480.29
  A 1.63 1.62 46.7 0 0 360.65 480.38
  Q 381.29 448.01 404.16 422.91
  C 442.73 380.57 491.49 347.60 544.44 325.45
  C 596.09 303.83 653.18 294.64 708.42 303.89
  Q 748.75 310.64 785.91 331.05
  Q 787.42 331.88 788.46 331.96
  C 791.18 332.17 791.31 329.08 789.97 327.49
  Q 787.47 324.50 780.39 319.06
  C 745.64 292.37 700.49 280.55 657.00 280.49
  C 582.44 280.40 507.94 309.83 450.39 356.40
  Q 431.69 371.53 412.41 391.82
  C 407.60 396.87 401.86 403.85 397.93 408.65
  Q 374.33 437.44 357.60 475.49
  A 5.33 5.31 -47.8 0 0 357.82 480.21
  L 357.86 480.29
  Z
  M 498.36 445.14
  A 0.33 0.32 54.7 0 1 498.43 444.71
  C 508.88 436.60 518.77 427.84 529.52 420.53
  Q 554.71 403.42 581.97 390.99
  Q 626.43 370.72 674.70 366.22
  Q 681.04 365.63 696.25 365.51
  Q 717.20 365.35 735.37 368.82
  C 741.28 369.95 746.02 371.43 751.46 372.42
  C 755.41 373.13 759.91 375.05 763.66 376.11
  Q 765.52 376.64 766.72 375.78
  A 1.72 1.58 53.6 0 0 766.98 373.41
  Q 765.83 371.91 763.65 370.61
  C 743.60 358.57 719.15 352.16 695.98 351.40
  C 686.57 351.08 675.51 350.81 666.36 351.72
  Q 638.63 354.46 619.01 360.29
  Q 547.95 381.41 491.47 433.16
  Q 486.97 437.28 479.57 445.32
  C 469.93 455.79 462.07 466.23 455.68 477.16
  Q 447.11 491.79 447.85 508.76
  Q 448.54 524.45 454.13 538.67
  Q 460.90 555.88 471.61 568.90
  Q 482.77 582.48 494.52 591.47
  Q 511.35 604.34 531.63 612.85
  Q 545.22 618.55 559.59 620.85
  C 560.88 621.06 561.97 620.92 563.11 620.89
  A 0.94 0.93 -13.3 0 1 563.99 621.43
  C 565.58 624.97 567.52 629.38 570.54 631.89
  A 2.28 2.24 45.5 0 0 573.40 631.94
  Q 574.29 631.23 574.41 629.67
  C 575.32 617.64 578.15 607.48 586.89 598.76
  C 600.33 585.36 619.46 580.43 638.26 580.35
  Q 652.37 580.29 665.50 579.77
  C 699.22 578.43 733.22 566.25 758.58 543.57
  C 762.13 540.40 769.42 533.44 768.96 529.51
  Q 768.63 526.65 766.25 526.96
  Q 752.70 528.74 738.75 526.99
  Q 723.72 525.11 711.02 516.97
  A 0.34 0.34 0.0 0 1 711.19 516.34
  Q 721.38 515.88 729.90 513.35
  C 738.93 510.65 748.60 506.93 757.03 502.17
  Q 782.77 487.61 798.76 463.46
  C 802.39 457.97 805.00 451.71 806.92 445.94
  Q 808.39 441.49 808.09 436.12
  C 807.54 426.36 798.64 422.59 790.42 420.36
  Q 776.69 416.63 759.50 413.55
  Q 709.10 404.53 655.50 405.32
  Q 645.11 405.47 630.75 406.50
  Q 605.57 408.31 582.70 413.48
  Q 563.37 417.85 546.22 423.77
  Q 521.21 432.41 498.78 445.24
  A 0.31 0.30 -32.3 0 1 498.37 445.15
  L 498.36 445.14
  Z
  M 547.44 635.92
  Q 546.88 635.63 546.65 635.58
  C 540.06 634.06 529.24 631.44 520.70 628.15
  Q 501.41 620.73 484.18 608.12
  Q 480.76 605.61 479.33 604.33
  C 475.49 600.88 471.43 597.82 467.90 594.28
  C 449.97 576.34 436.41 553.89 431.23 529.19
  C 428.86 517.89 427.70 507.82 428.66 497.07
  A 2.28 2.14 -89.6 0 0 426.36 494.59
  Q 425.58 494.66 424.61 495.62
  C 396.69 522.98 378.41 558.44 371.57 596.77
  Q 368.62 613.28 369.70 632.53
  C 370.17 641.00 370.93 646.93 375.43 653.09
  Q 384.15 665.03 396.87 674.36
  C 422.12 692.88 452.40 700.31 484.08 697.62
  Q 501.23 696.17 517.55 689.06
  Q 529.31 683.95 537.81 675.57
  Q 539.39 674.01 539.64 671.92
  Q 541.73 654.56 548.41 638.67
  A 2.16 2.16 0.0 0 0 547.44 635.92
  Z
  M 723.64 780.51
  A 0.48 0.48 0.0 0 1 723.56 779.84
  Q 735.67 764.24 744.02 746.34
  C 747.15 739.62 749.79 731.78 751.50 725.49
  C 755.30 711.53 756.20 693.80 751.57 679.70
  C 747.82 668.23 741.47 657.52 730.52 651.96
  Q 722.98 648.12 714.79 651.33
  Q 709.22 653.51 706.75 655.51
  Q 694.96 665.04 688.10 678.59
  C 678.10 698.37 673.56 720.26 673.57 742.58
  C 673.57 759.17 677.42 776.24 682.70 792.32
  A 5.05 5.01 -77.4 0 0 683.98 794.36
  Q 690.67 800.75 696.04 807.26
  Q 702.19 814.73 703.85 817.91
  Q 705.70 821.46 707.46 824.82
  A 2.32 2.29 88.6 0 0 708.52 825.84
  Q 710.54 826.79 711.88 826.95
  Q 718.90 827.74 730.10 828.18
  Q 740.20 828.58 748.36 827.99
  Q 788.45 825.08 822.03 801.75
  C 835.73 792.23 847.98 779.06 853.38 763.92
  Q 855.45 758.09 855.30 755.96
  Q 854.48 744.45 845.00 737.44
  C 817.16 716.86 780.38 727.10 755.54 747.80
  Q 743.14 758.13 733.91 769.15
  Q 729.47 774.44 724.34 780.46
  A 0.50 0.49 -50.6 0 1 723.66 780.53
  L 723.64 780.51
  Z
  M 536.67 697.89
  C 498.61 723.94 445.74 723.82 405.47 702.80
  Q 402.61 701.31 391.84 694.37
  C 388.17 692.00 384.73 688.67 381.45 686.13
  Q 380.07 685.05 379.14 685.10
  A 2.35 2.11 -88.8 0 0 377.13 687.24
  Q 376.88 690.34 377.64 693.61
  Q 386.82 733.03 408.95 766.03
  Q 420.34 782.99 439.39 800.83
  C 442.92 804.14 446.94 806.51 451.24 807.28
  Q 463.38 809.45 476.37 806.84
  C 503.80 801.31 526.76 784.74 540.67 760.42
  Q 547.45 748.57 548.83 735.76
  Q 549.14 732.86 548.17 730.46
  Q 542.65 716.90 539.82 700.05
  Q 539.46 697.90 537.70 697.65
  A 1.47 1.46 -57.9 0 0 536.67 697.89
  Z
  M 560.06 755.89
  Q 559.90 756.12 559.57 757.06
  Q 551.91 779.19 534.58 795.85
  Q 509.31 820.15 474.18 824.10
  A 1.73 1.72 78.7 0 0 472.72 826.30
  Q 472.99 827.26 474.15 828.13
  Q 482.52 834.43 495.38 841.61
  Q 528.98 860.38 566.78 866.61
  C 570.79 867.28 573.36 866.95 576.66 865.39
  C 583.01 862.40 588.10 857.21 591.89 850.72
  C 598.81 838.85 603.09 822.42 600.96 808.02
  C 599.61 798.91 598.29 792.22 594.48 785.14
  Q 593.57 783.45 588.77 780.23
  Q 574.15 770.40 562.65 755.81
  A 1.62 1.61 43.2 0 0 560.06 755.89
  Z
  M 598.91 868.88
  A 2.31 2.30 0.8 0 0 601.08 871.10
  Q 625.00 872.53 648.50 868.04
  C 662.55 865.36 677.23 860.57 688.09 851.54
  Q 696.42 844.62 694.01 833.98
  Q 691.82 824.29 684.74 815.29
  Q 682.12 811.95 675.68 805.96
  Q 670.70 801.32 665.02 798.49
  A 8.77 8.68 56.4 0 0 660.63 797.58
  Q 649.36 798.22 636.87 797.35
  C 629.40 796.82 624.29 795.37 616.22 793.30
  A 1.93 1.93 0.0 0 0 613.89 794.62
  Q 613.80 794.92 613.96 795.53
  Q 619.40 816.77 614.76 837.26
  Q 612.58 846.92 606.32 858.65
  C 604.47 862.11 602.10 864.43 599.49 867.74
  Q 598.90 868.49 598.91 868.88
  Z
  M 467.72 903.68
  Q 467.80 903.04 467.54 902.30
  C 464.03 892.19 459.93 885.94 452.16 873.21
  Q 448.68 867.51 443.63 861.09
  Q 434.96 850.03 434.27 849.24
  Q 421.43 834.71 407.49 823.60
  Q 393.96 812.82 378.29 806.32
  C 360.91 799.11 337.06 803.69 335.22 826.32
  C 334.57 834.31 337.47 841.00 342.91 846.84
  Q 348.64 852.99 355.02 855.77
  C 367.28 861.11 377.31 862.36 395.18 865.86
  C 407.37 868.25 422.11 873.87 434.50 880.84
  Q 446.53 887.60 448.25 888.99
  Q 461.35 899.49 465.89 903.97
  Q 466.35 904.42 466.95 904.42
  Q 467.64 904.41 467.72 903.68
  Z
  M 431.21 915.41
  Q 430.29 914.04 428.38 912.62
  Q 414.93 902.62 401.26 897.00
  C 396.67 895.12 392.26 894.05 387.22 892.36
  Q 382.51 890.79 376.45 889.77
  Q 365.24 887.90 354.99 887.67
  Q 351.60 887.59 342.84 889.07
  C 335.01 890.40 327.59 893.68 323.41 900.25
  C 318.66 907.73 317.81 914.62 323.16 922.09
  C 330.00 931.63 344.28 931.83 354.10 927.76
  Q 362.88 924.12 368.54 921.43
  C 381.77 915.13 396.59 911.62 410.98 913.02
  Q 422.12 914.11 430.23 916.71
  A 0.86 0.86 0.0 0 0 431.21 915.41
  Z"
/>
<ellipse cx="0.00" cy="0.00" transform="translate(672.90,459.96) rotate(-162.6)" rx="10.03" ry="9.77"/>
</g>
<g fill="#fe6221">
<path d="
  M 357.86 480.29
  L 357.82 480.21
  A 5.33 5.31 -47.8 0 1 357.60 475.49
  Q 374.33 437.44 397.93 408.65
  C 401.86 403.85 407.60 396.87 412.41 391.82
  Q 431.69 371.53 450.39 356.40
  C 507.94 309.83 582.44 280.40 657.00 280.49
  C 700.49 280.55 745.64 292.37 780.39 319.06
  Q 787.47 324.50 789.97 327.49
  C 791.31 329.08 791.18 332.17 788.46 331.96
  Q 787.42 331.88 785.91 331.05
  Q 748.75 310.64 708.42 303.89
  C 653.18 294.64 596.09 303.83 544.44 325.45
  C 491.49 347.60 442.73 380.57 404.16 422.91
  Q 381.29 448.01 360.65 480.38
  A 1.63 1.62 46.7 0 1 357.86 480.29
  Z"
/>
<path d="
  M 498.78 445.24
  Q 521.21 432.41 546.22 423.77
  Q 563.37 417.85 582.70 413.48
  Q 605.57 408.31 630.75 406.50
  Q 645.11 405.47 655.50 405.32
  Q 709.10 404.53 759.50 413.55
  Q 776.69 416.63 790.42 420.36
  C 798.64 422.59 807.54 426.36 808.09 436.12
  Q 808.39 441.49 806.92 445.94
  C 805.00 451.71 802.39 457.97 798.76 463.46
  Q 782.77 487.61 757.03 502.17
  C 748.60 506.93 738.93 510.65 729.90 513.35
  Q 721.38 515.88 711.19 516.34
  A 0.34 0.34 0.0 0 0 711.02 516.97
  Q 723.72 525.11 738.75 526.99
  Q 752.70 528.74 766.25 526.96
  Q 768.63 526.65 768.96 529.51
  C 769.42 533.44 762.13 540.40 758.58 543.57
  C 733.22 566.25 699.22 578.43 665.50 579.77
  Q 652.37 580.29 638.26 580.35
  C 619.46 580.43 600.33 585.36 586.89 598.76
  C 578.15 607.48 575.32 617.64 574.41 629.67
  Q 574.29 631.23 573.40 631.94
  A 2.28 2.24 45.5 0 1 570.54 631.89
  C 567.52 629.38 565.58 624.97 563.99 621.43
  A 0.94 0.93 -13.3 0 0 563.11 620.89
  C 561.97 620.92 560.88 621.06 559.59 620.85
  Q 545.22 618.55 531.63 612.85
  Q 511.35 604.34 494.52 591.47
  Q 482.77 582.48 471.61 568.90
  Q 460.90 555.88 454.13 538.67
  Q 448.54 524.45 447.85 508.76
  Q 447.11 491.79 455.68 477.16
  C 462.07 466.23 469.93 455.79 479.57 445.32
  Q 486.97 437.28 491.47 433.16
  Q 547.95 381.41 619.01 360.29
  Q 638.63 354.46 666.36 351.72
  C 675.51 350.81 686.57 351.08 695.98 351.40
  C 719.15 352.16 743.60 358.57 763.65 370.61
  Q 765.83 371.91 766.98 373.41
  A 1.72 1.58 53.6 0 1 766.72 375.78
  Q 765.52 376.64 763.66 376.11
  C 759.91 375.05 755.41 373.13 751.46 372.42
  C 746.02 371.43 741.28 369.95 735.37 368.82
  Q 717.20 365.35 696.25 365.51
  Q 681.04 365.63 674.70 366.22
  Q 626.43 370.72 581.97 390.99
  Q 554.71 403.42 529.52 420.53
  C 518.77 427.84 508.88 436.60 498.43 444.71
  A 0.33 0.32 54.7 0 0 498.36 445.14
  L 498.37 445.15
  A 0.31 0.30 -32.3 0 0 498.78 445.24
  Z
  M 694.54 470.42
  A 26.85 26.85 0.0 0 0 667.69 443.57
  A 26.85 26.85 0.0 0 0 640.84 470.42
  A 26.85 26.85 0.0 0 0 667.69 497.27
  A 26.85 26.85 0.0 0 0 694.54 470.42
  Z"
/>
<path d="
  M 547.44 635.92
  A 2.16 2.16 0.0 0 1 548.41 638.67
  Q 541.73 654.56 539.64 671.92
  Q 539.39 674.01 537.81 675.57
  Q 529.31 683.95 517.55 689.06
  Q 501.23 696.17 484.08 697.62
  C 452.40 700.31 422.12 692.88 396.87 674.36
  Q 384.15 665.03 375.43 653.09
  C 370.93 646.93 370.17 641.00 369.70 632.53
  Q 368.62 613.28 371.57 596.77
  C 378.41 558.44 396.69 522.98 424.61 495.62
  Q 425.58 494.66 426.36 494.59
  A 2.28 2.14 -89.6 0 1 428.66 497.07
  C 427.70 507.82 428.86 517.89 431.23 529.19
  C 436.41 553.89 449.97 576.34 467.90 594.28
  C 471.43 597.82 475.49 600.88 479.33 604.33
  Q 480.76 605.61 484.18 608.12
  Q 501.41 620.73 520.70 628.15
  C 529.24 631.44 540.06 634.06 546.65 635.58
  Q 546.88 635.63 547.44 635.92
  Z"
/>
<path d="
  M 723.64 780.51
  L 723.66 780.53
  A 0.50 0.49 -50.6 0 0 724.34 780.46
  Q 729.47 774.44 733.91 769.15
  Q 743.14 758.13 755.54 747.80
  C 780.38 727.10 817.16 716.86 845.00 737.44
  Q 854.48 744.45 855.30 755.96
  Q 855.45 758.09 853.38 763.92
  C 847.98 779.06 835.73 792.23 822.03 801.75
  Q 788.45 825.08 748.36 827.99
  Q 740.20 828.58 730.10 828.18
  Q 718.90 827.74 711.88 826.95
  Q 710.54 826.79 708.52 825.84
  A 2.32 2.29 88.6 0 1 707.46 824.82
  Q 705.70 821.46 703.85 817.91
  Q 702.19 814.73 696.04 807.26
  Q 690.67 800.75 683.98 794.36
  A 5.05 5.01 -77.4 0 1 682.70 792.32
  C 677.42 776.24 673.57 759.17 673.57 742.58
  C 673.56 720.26 678.10 698.37 688.10 678.59
  Q 694.96 665.04 706.75 655.51
  Q 709.22 653.51 714.79 651.33
  Q 722.98 648.12 730.52 651.96
  C 741.47 657.52 747.82 668.23 751.57 679.70
  C 756.20 693.80 755.30 711.53 751.50 725.49
  C 749.79 731.78 747.15 739.62 744.02 746.34
  Q 735.67 764.24 723.56 779.84
  A 0.48 0.48 0.0 0 0 723.64 780.51
  Z"
/>
<path d="
  M 537.70 697.65
  Q 539.46 697.90 539.82 700.05
  Q 542.65 716.90 548.17 730.46
  Q 549.14 732.86 548.83 735.76
  Q 547.45 748.57 540.67 760.42
  C 526.76 784.74 503.80 801.31 476.37 806.84
  Q 463.38 809.45 451.24 807.28
  C 446.94 806.51 442.92 804.14 439.39 800.83
  Q 420.34 782.99 408.95 766.03
  Q 386.82 733.03 377.64 693.61
  Q 376.88 690.34 377.13 687.24
  A 2.35 2.11 -88.8 0 1 379.14 685.10
  Q 380.07 685.05 381.45 686.13
  C 384.73 688.67 388.17 692.00 391.84 694.37
  Q 402.61 701.31 405.47 702.80
  C 445.74 723.82 498.61 723.94 536.67 697.89
  A 1.47 1.46 -57.9 0 1 537.70 697.65
  Z"
/>
<path d="
  M 560.06 755.89
  A 1.62 1.61 43.2 0 1 562.65 755.81
  Q 574.15 770.40 588.77 780.23
  Q 593.57 783.45 594.48 785.14
  C 598.29 792.22 599.61 798.91 600.96 808.02
  C 603.09 822.42 598.81 838.85 591.89 850.72
  C 588.10 857.21 583.01 862.40 576.66 865.39
  C 573.36 866.95 570.79 867.28 566.78 866.61
  Q 528.98 860.38 495.38 841.61
  Q 482.52 834.43 474.15 828.13
  Q 472.99 827.26 472.72 826.30
  A 1.73 1.72 78.7 0 1 474.18 824.10
  Q 509.31 820.15 534.58 795.85
  Q 551.91 779.19 559.57 757.06
  Q 559.90 756.12 560.06 755.89
  Z"
/>
<path d="
  M 598.91 868.88
  Q 598.90 868.49 599.49 867.74
  C 602.10 864.43 604.47 862.11 606.32 858.65
  Q 612.58 846.92 614.76 837.26
  Q 619.40 816.77 613.96 795.53
  Q 613.80 794.92 613.89 794.62
  A 1.93 1.93 0.0 0 1 616.22 793.30
  C 624.29 795.37 629.40 796.82 636.87 797.35
  Q 649.36 798.22 660.63 797.58
  A 8.77 8.68 56.4 0 1 665.02 798.49
  Q 670.70 801.32 675.68 805.96
  Q 682.12 811.95 684.74 815.29
  Q 691.82 824.29 694.01 833.98
  Q 696.42 844.62 688.09 851.54
  C 677.23 860.57 662.55 865.36 648.50 868.04
  Q 625.00 872.53 601.08 871.10
  A 2.31 2.30 0.8 0 1 598.91 868.88
  Z"
/>
</g>
<g fill="#59a1f4">
<ellipse cx="0.00" cy="0.00" transform="translate(655.00,480.23) rotate(-179.3)" rx="1.88" ry="1.62"/>
<path d="
  M 467.72 903.68
  Q 467.64 904.41 466.95 904.42
  Q 466.35 904.42 465.89 903.97
  Q 461.35 899.49 448.25 888.99
  Q 446.53 887.60 434.50 880.84
  C 422.11 873.87 407.37 868.25 395.18 865.86
  C 377.31 862.36 367.28 861.11 355.02 855.77
  Q 348.64 852.99 342.91 846.84
  C 337.47 841.00 334.57 834.31 335.22 826.32
  C 337.06 803.69 360.91 799.11 378.29 806.32
  Q 393.96 812.82 407.49 823.60
  Q 421.43 834.71 434.27 849.24
  Q 434.96 850.03 443.63 861.09
  Q 448.68 867.51 452.16 873.21
  C 459.93 885.94 464.03 892.19 467.54 902.30
  Q 467.80 903.04 467.72 903.68
  Z"
/>
<path d="
  M 431.21 915.41
  A 0.86 0.86 0.0 0 1 430.23 916.71
  Q 422.12 914.11 410.98 913.02
  C 396.59 911.62 381.77 915.13 368.54 921.43
  Q 362.88 924.12 354.10 927.76
  C 344.28 931.83 330.00 931.63 323.16 922.09
  C 317.81 914.62 318.66 907.73 323.41 900.25
  C 327.59 893.68 335.01 890.40 342.84 889.07
  Q 351.60 887.59 354.99 887.67
  Q 365.24 887.90 376.45 889.77
  Q 382.51 890.79 387.22 892.36
  C 392.26 894.05 396.67 895.12 401.26 897.00
  Q 414.93 902.62 428.38 912.62
  Q 430.29 914.04 431.21 915.41
  Z"
/>
</g>
<path fill="#1c1d2f" d="
  M 694.54 470.42
  A 26.85 26.85 0.0 0 1 667.69 497.27
  A 26.85 26.85 0.0 0 1 640.84 470.42
  A 26.85 26.85 0.0 0 1 667.69 443.57
  A 26.85 26.85 0.0 0 1 694.54 470.42
  Z
  M 663.3290 456.9606
  A 10.03 9.77 -162.6 0 0 669.9784 469.2829
  A 10.03 9.77 -162.6 0 0 682.4710 462.9594
  A 10.03 9.77 -162.6 0 0 675.8216 450.6371
  A 10.03 9.77 -162.6 0 0 663.3290 456.9606
  Z
  M 653.1201 480.2070
  A 1.88 1.62 -179.3 0 0 654.9802 481.8499
  A 1.88 1.62 -179.3 0 0 656.8799 480.2530
  A 1.88 1.62 -179.3 0 0 655.0198 478.6101
  A 1.88 1.62 -179.3 0 0 653.1201 480.2070
  Z"
/>
</svg>
